<?xml version="1.0" encoding="utf-8"?>
<COLLADA xmlns="http://www.collada.org/2005/11/COLLADASchema" version="1.4.1" xmlns:xsi="http://www.w3.org/2001/XMLSchema-instance">
  <asset>
    <contributor>
      <author>Blender User</author>
      <authoring_tool>Blender 4.2.18 LTS commit date:2026-02-16, commit time:13:37, hash:d71e3422e438</authoring_tool>
    </contributor>
    <created>2026-04-09T16:07:41</created>
    <modified>2026-04-09T16:07:41</modified>
    <unit name="meter" meter="1"/>
    <up_axis>Z_UP</up_axis>
  </asset>
  <library_effects/>
  <library_images/>
  <library_geometries>
    <geometry id="Cube_003-mesh" name="Cube.003">
      <mesh>
        <source id="Cube_003-mesh-positions">
          <float_array id="Cube_003-mesh-positions-array" count="96">-1 -1 -1 -1 -1 1 -1 1 -1 -1 1 1 1 -1 -1 1 -1 1 1 1 -1 1 1 1 -1.020137 -1.151936 -3.048377 -1.020137 -0.9166417 -0.7389754 -1.020137 -1.233444 -2.78171 0.979862 -1.151936 -3.048377 0.979862 -0.9166417 -0.7389754 0.979862 -1.233444 -2.78171 0.979862 -0.99815 -0.4723088 -1.020137 -0.99815 -0.4723088 -1.020137 0.9159179 -0.7389754 -1.020137 1.151212 -3.048377 -1.020137 0.997426 -0.4723088 0.979862 0.9159179 -0.7389754 0.979862 1.151212 -3.048377 0.979862 0.997426 -0.4723088 0.979862 1.23272 -2.78171 -1.020137 1.23272 -2.78171 -2.287629 -0.2356561 -0.3705725 -2.287629 -0.2356561 0.9627614 -2.287629 0.2349322 -0.3705725 -2.287629 0.2349322 0.9627614 0.379037 -0.2356561 -0.3705725 0.379037 -0.2356561 0.9627614 0.379037 0.2349322 -0.3705725 0.379037 0.2349322 0.9627614</float_array>
          <technique_common>
            <accessor source="#Cube_003-mesh-positions-array" count="32" stride="3">
              <param name="X" type="float"/>
              <param name="Y" type="float"/>
              <param name="Z" type="float"/>
            </accessor>
          </technique_common>
        </source>
        <source id="Cube_003-mesh-normals">
          <float_array id="Cube_003-mesh-normals-array" count="144">-1 0 0 0 1 0 1 0 0 0 -1 0 0 0 -1 0 0 1 0 0.9948498 -0.1013606 -1 0 0 0 -0.9563249 -0.2923058 1 0 0 0 -0.9948498 0.1013605 0 0.9563248 0.2923064 0 -0.9948498 -0.1013606 -1 0 0 0 -0.9563249 0.2923061 1 0 0 0 0.9948498 0.1013606 0 0.9563249 -0.2923058 -1 0 0 0 1 0 1 0 0 0 -1 0 0 0 -1 0 0 1 -1 0 0 0 1 0 1 0 0 0 -1 0 0 0 -1 0 0 1 0 0.9948498 -0.1013606 -1 0 0 0 -0.9563249 -0.2923058 1 0 0 0 -0.9948498 0.1013605 0 0.9563248 0.2923064 0 -0.9948498 -0.1013606 -1 0 0 0 -0.9563249 0.2923061 1 0 0 0 0.9948498 0.1013606 0 0.9563249 -0.2923058 -1 0 0 0 1 0 1 0 0 0 -1 0 0 0 -1 0 0 1</float_array>
          <technique_common>
            <accessor source="#Cube_003-mesh-normals-array" count="48" stride="3">
              <param name="X" type="float"/>
              <param name="Y" type="float"/>
              <param name="Z" type="float"/>
            </accessor>
          </technique_common>
        </source>
        <source id="Cube_003-mesh-map-0">
          <float_array id="Cube_003-mesh-map-0-array" count="288">0.625 0 0.375 0.25 0.375 0 0.625 0.25 0.375 0.5 0.375 0.25 0.625 0.5 0.375 0.75 0.375 0.5 0.625 0.75 0.375 1 0.375 0.75 0.375 0.5 0.125 0.75 0.125 0.5 0.875 0.5 0.625 0.75 0.625 0.5 0.375 0.5 0.125 0.75 0.125 0.5 0.625 0 0.375 0.25 0.375 0 0.625 0.75 0.375 1 0.375 0.75 0.375 0.5 0.625 0.75 0.375 0.75 0.875 0.5 0.625 0.75 0.625 0.5 0.625 0.25 0.375 0.5 0.375 0.25 0.375 0.5 0.125 0.75 0.125 0.5 0.375 0 0.625 0.25 0.375 0.25 0.625 0.75 0.375 1 0.375 0.75 0.625 0.5 0.375 0.75 0.375 0.5 0.875 0.5 0.625 0.75 0.625 0.5 0.625 0.25 0.375 0.5 0.375 0.25 0.625 0 0.375 0.25 0.375 0 0.625 0.25 0.375 0.5 0.375 0.25 0.625 0.5 0.375 0.75 0.375 0.5 0.625 0.75 0.375 1 0.375 0.75 0.375 0.5 0.125 0.75 0.125 0.5 0.875 0.5 0.625 0.75 0.625 0.5 0.625 0 0.625 0.25 0.375 0.25 0.625 0.25 0.625 0.5 0.375 0.5 0.625 0.5 0.625 0.75 0.375 0.75 0.625 0.75 0.625 1 0.375 1 0.375 0.5 0.375 0.75 0.125 0.75 0.875 0.5 0.875 0.75 0.625 0.75 0.375 0.5 0.375 0.75 0.125 0.75 0.625 0 0.625 0.25 0.375 0.25 0.625 0.75 0.625 1 0.375 1 0.375 0.5 0.625 0.5 0.625 0.75 0.875 0.5 0.875 0.75 0.625 0.75 0.625 0.25 0.625 0.5 0.375 0.5 0.375 0.5 0.375 0.75 0.125 0.75 0.375 0 0.625 0 0.625 0.25 0.625 0.75 0.625 1 0.375 1 0.625 0.5 0.625 0.75 0.375 0.75 0.875 0.5 0.875 0.75 0.625 0.75 0.625 0.25 0.625 0.5 0.375 0.5 0.625 0 0.625 0.25 0.375 0.25 0.625 0.25 0.625 0.5 0.375 0.5 0.625 0.5 0.625 0.75 0.375 0.75 0.625 0.75 0.625 1 0.375 1 0.375 0.5 0.375 0.75 0.125 0.75 0.875 0.5 0.875 0.75 0.625 0.75</float_array>
          <technique_common>
            <accessor source="#Cube_003-mesh-map-0-array" count="144" stride="2">
              <param name="S" type="float"/>
              <param name="T" type="float"/>
            </accessor>
          </technique_common>
        </source>
        <vertices id="Cube_003-mesh-vertices">
          <input semantic="POSITION" source="#Cube_003-mesh-positions"/>
        </vertices>
        <triangles count="48">
          <input semantic="VERTEX" source="#Cube_003-mesh-vertices" offset="0"/>
          <input semantic="NORMAL" source="#Cube_003-mesh-normals" offset="1"/>
          <input semantic="TEXCOORD" source="#Cube_003-mesh-map-0" offset="2" set="0"/>
          <p>1 0 0 2 0 1 0 0 2 3 1 3 6 1 4 2 1 5 7 2 6 4 2 7 6 2 8 5 3 9 0 3 10 4 3 11 6 4 12 0 4 13 2 4 14 3 5 15 5 5 16 7 5 17 12 6 18 8 6 19 9 6 20 10 7 21 9 7 22 8 7 23 13 8 24 8 8 25 11 8 26 12 9 27 13 9 28 11 9 29 15 10 30 13 10 31 14 10 32 15 11 33 12 11 34 9 11 35 20 12 36 16 12 37 17 12 38 16 13 39 23 13 40 17 13 41 21 14 42 16 14 43 19 14 44 22 15 45 19 15 46 20 15 47 23 16 48 21 16 49 22 16 50 23 17 51 20 17 52 17 17 53 25 18 54 26 18 55 24 18 56 27 19 57 30 19 58 26 19 59 31 20 60 28 20 61 30 20 62 29 21 63 24 21 64 28 21 65 30 22 66 24 22 67 26 22 68 27 23 69 29 23 70 31 23 71 1 24 72 3 24 73 2 24 74 3 25 75 7 25 76 6 25 77 7 26 78 5 26 79 4 26 80 5 27 81 1 27 82 0 27 83 6 28 84 4 28 85 0 28 86 3 29 87 1 29 88 5 29 89 12 30 90 11 30 91 8 30 92 10 31 93 15 31 94 9 31 95 13 32 96 10 32 97 8 32 98 12 33 99 14 33 100 13 33 101 15 34 102 10 34 103 13 34 104 15 35 105 14 35 106 12 35 107 20 36 108 19 36 109 16 36 110 16 37 111 18 37 112 23 37 113 21 38 114 18 38 115 16 38 116 22 39 117 21 39 118 19 39 119 23 40 120 18 40 121 21 40 122 23 41 123 22 41 124 20 41 125 25 42 126 27 42 127 26 42 128 27 43 129 31 43 130 30 43 131 31 44 132 29 44 133 28 44 134 29 45 135 25 45 136 24 45 137 30 46 138 28 46 139 24 46 140 27 47 141 25 47 142 29 47 143</p>
        </triangles>
      </mesh>
    </geometry>
  </library_geometries>
  <library_visual_scenes>
    <visual_scene id="Scene" name="Scene">
      <node id="tmp_export_Cube_003" name="tmp_export_Cube.003" type="NODE">
        <matrix sid="transform">1 0 0 0 0 1 0 0 0 0 1 0 0 0 0 1</matrix>
        <instance_geometry url="#Cube_003-mesh" name="tmp_export_Cube.003"/>
      </node>
    </visual_scene>
  </library_visual_scenes>
  <scene>
    <instance_visual_scene url="#Scene"/>
  </scene>
</COLLADA>