<?xml version="1.0" encoding="utf-8"?>
<COLLADA xmlns="http://www.collada.org/2005/11/COLLADASchema" version="1.4.1" xmlns:xsi="http://www.w3.org/2001/XMLSchema-instance">
  <asset>
    <contributor>
      <author>Blender User</author>
      <authoring_tool>Blender 4.2.18 LTS commit date:2026-02-16, commit time:13:37, hash:d71e3422e438</authoring_tool>
    </contributor>
    <created>2026-04-09T16:07:41</created>
    <modified>2026-04-09T16:07:41</modified>
    <unit name="meter" meter="1"/>
    <up_axis>Z_UP</up_axis>
  </asset>
  <library_effects/>
  <library_images/>
  <library_geometries>
    <geometry id="Cube_001-mesh" name="Cube.001">
      <mesh>
        <source id="Cube_001-mesh-positions">
          <float_array id="Cube_001-mesh-positions-array" count="321">-1 -1 -1 -1 -1 1 -1 1 -1 -1 1 1 1 -1 -1 1 -1 1 1 1 -1 1 1 1 3.143941 -0.7414081 0.3333415 3.17451 -0.5707041 0.3333415 3.053409 -0.905552 0.3333415 3.143941 -0.7414081 0.666675 3.17451 -0.5707041 0.666675 3.143941 -0.7414081 1.000009 3.053409 -0.905552 0.666675 2.962877 -1.069696 0.666675 3.053409 -0.905552 1.000009 2.962877 -1.069696 1.000009 2.815862 -1.220972 1.000009 2.815862 -1.220972 0.666675 2.668846 -1.372248 1.000009 2.668846 -1.372248 0.666675 2.470996 -1.504842 1.000009 2.470996 -1.504842 0.666675 2.273146 -1.637437 1.000009 2.273146 -1.637437 0.666675 2.032065 -1.746254 1.000009 2.032065 -1.746254 0.666675 1.790984 -1.855072 1.000009 1.790984 -1.855072 0.666675 1.515937 -1.93593 1.000009 1.515937 -1.93593 0.666675 1.24089 -2.016789 1.000009 1.24089 -2.016789 0.666675 0.9424465 -2.066582 1.000009 0.9424465 -2.066582 0.666675 0.6440029 -2.116374 1.000009 0.6440029 -2.116374 0.666675 0.3336319 -2.133187 1.000009 0.3336319 -2.133187 0.666675 0.02326095 -2.15 1.000009 0.02326095 -2.15 0.666675 -0.28711 -2.133187 1.000009 -0.28711 -2.133187 0.666675 -0.597481 -2.116374 1.000009 -0.597481 -2.116374 0.666675 -0.8959246 -2.066582 1.000009 -0.8959246 -2.066582 0.666675 -1.194368 -2.016789 1.000009 -1.194368 -2.016789 0.666675 -1.469415 -1.93593 1.000009 -1.469415 -1.93593 0.666675 -1.744462 -1.855072 1.000009 -1.744462 -1.855072 0.666675 -1.985543 -1.746254 1.000009 -1.985543 -1.746254 0.666675 -2.226624 -1.637437 1.000009 -2.226624 -1.637437 0.666675 -2.424474 -1.504842 1.000009 -2.424474 -1.504842 0.666675 -2.622324 -1.372248 1.000009 -2.622324 -1.372248 0.666675 -2.76934 -1.220972 1.000009 -2.76934 -1.220972 0.666675 -2.916355 -1.069696 1.000009 -2.916355 -1.069696 0.666675 -3.006887 -0.905552 1.000009 -3.006887 -0.905552 0.666675 -3.097419 -0.7414081 1.000009 -3.097419 -0.7414081 0.666675 -3.127988 -0.5707041 1.000009 -3.127988 -0.5707041 0.666675 -3.157372 -0.4066162 1.000009 -3.157372 -0.4066162 0.666675 3.203894 -0.4066162 1.000009 3.17451 -0.5707041 1.000009 3.203894 -0.4066162 0.666675 3.203894 -0.4066162 0.3333415 -3.157372 -0.4066162 0.3333415 -3.127988 -0.5707041 0.3333415 -3.097419 -0.7414081 0.3333415 -3.006887 -0.905552 0.3333415 -2.916355 -1.069696 0.3333415 -2.76934 -1.220972 0.3333415 -2.622324 -1.372248 0.3333415 -2.424474 -1.504842 0.3333415 -2.226624 -1.637437 0.3333415 -1.985543 -1.746254 0.3333415 -1.744462 -1.855072 0.3333415 -1.469415 -1.93593 0.3333415 -1.194368 -2.016789 0.3333415 -0.8959246 -2.066582 0.3333415 -0.597481 -2.116374 0.3333415 -0.28711 -2.133187 0.3333415 0.02326095 -2.15 0.3333415 0.3336319 -2.133187 0.3333415 0.6440029 -2.116374 0.3333415 0.9424465 -2.066582 0.3333415 1.24089 -2.016789 0.3333415 1.515937 -1.93593 0.3333415 1.790984 -1.855072 0.3333415 2.032065 -1.746254 0.3333415 2.273146 -1.637437 0.3333415 2.470996 -1.504842 0.3333415 2.668846 -1.372248 0.3333415 2.815862 -1.220972 0.3333415 2.962877 -1.069696 0.3333415</float_array>
          <technique_common>
            <accessor source="#Cube_001-mesh-positions-array" count="107" stride="3">
              <param name="X" type="float"/>
              <param name="Y" type="float"/>
              <param name="Z" type="float"/>
            </accessor>
          </technique_common>
        </source>
        <source id="Cube_001-mesh-normals">
          <float_array id="Cube_001-mesh-normals-array" count="618">-1 0 0 0 1 0 1 0 0 0 -1 0 0 0 -1 0 0 1 0 0 -1 0.9843417 -0.176271 0 0.8756456 -0.4829542 0 0.9843417 -0.176271 0 0.8756455 -0.4829542 0 0.8756461 -0.4829533 0 0.8756461 -0.4829533 0 0 0 1 0.7171331 -0.6969363 0 0.717132 -0.6969375 0 0.5567174 -0.830702 0 0.5567172 -0.830702 0 0.4114055 -0.9114524 0 0.4114049 -0.9114527 0 0.2820463 -0.9594008 0 0.2820459 -0.959401 0 0.1645659 -0.986366 0 0.1645659 -0.986366 0 0.05409067 -0.9985361 0 0.05409145 -0.998536 0 -0.05409145 -0.998536 0 -0.05409067 -0.9985361 0 -0.1645659 -0.986366 0 -0.1645659 -0.986366 0 -0.2820459 -0.959401 0 -0.2820463 -0.9594008 0 -0.411405 -0.9114526 0 -0.4114056 -0.9114524 0 -0.5567172 -0.830702 0 -0.5567174 -0.830702 0 -0.717132 -0.6969375 0 -0.7171331 -0.6969363 0 -0.8756461 -0.4829533 0 -0.8756455 -0.4829542 0 -0.9843417 -0.176271 0 -0.9843416 -0.1762716 0 0 1 0 0.9843416 -0.1762716 0 0.9843416 -0.1762716 0 -0.9843416 -0.1762716 0 -0.9843417 -0.176271 0 -0.8756456 -0.4829542 0 -0.8756461 -0.4829533 0 -0.7171331 -0.6969363 0 -0.717132 -0.6969375 0 -0.5567173 -0.830702 0 -0.5567172 -0.8307021 0 -0.4114056 -0.9114524 0 -0.4114051 -0.9114526 0 -0.2820463 -0.9594008 0 -0.2820459 -0.9594009 0 -0.164566 -0.9863661 0 -0.1645659 -0.9863661 0 -0.05409067 -0.9985361 0 -0.05409145 -0.998536 0 0.05409145 -0.998536 0 0.05409067 -0.9985361 0 0.1645659 -0.9863661 0 0.164566 -0.9863661 0 0.2820459 -0.9594009 0 0.2820463 -0.9594008 0 0.4114049 -0.9114527 0 0.4114055 -0.9114524 0 0.5567172 -0.8307021 0 0.5567173 -0.830702 0 0.717132 -0.6969375 0 0.7171331 -0.6969363 0 -1 0 0 0 1 0 1 0 0 0 -1 0 0 0 -1 0 0 1 0 0 -1 0 0 -1 0 0 -1 0 0 -1 0 0 -1 0 0 -1 0 0 -1 0 0 -1 0 0 -1 0 0 -1 0 0 -1 0 0 -1 0 0 -1 0 0 -1 0 0 -1 0 0 -1 0 0 -1 0 0 -1 0 0 -1 0 0 -1 0 0 -1 0 0 -1 0 0 -1 0 0 -1 0 0 -1 0 0 -1 0 0 -1 0 0 -1 0 0 -1 0 0 -1 0.9843417 -0.176271 0 0.8756456 -0.4829542 0 0.9843417 -0.176271 0 0.8756455 -0.4829542 0 0.8756461 -0.4829533 0 0.8756461 -0.4829533 0 0 0 1 0 0 1 0 0 1 0 0 1 0 0 1 0 0 1 0 0 1 0 0 1 0 0 1 0 0 1 0 0 1 0 0 1 0 0 1 0 0 1 0 0 1 0 0 1 0 0 1 0 0 1 0 0 1 0 0 1 0 0 1 0 0 1 0 0 1 0 0 1 0 0 1 0 0 1 0 0 1 0 0 1 0 0 1 0 0 1 0.7171331 -0.6969363 0 0.717132 -0.6969375 0 0.5567174 -0.830702 0 0.5567172 -0.830702 0 0.4114055 -0.9114524 0 0.4114049 -0.9114527 0 0.2820463 -0.9594008 0 0.2820459 -0.959401 0 0.1645659 -0.986366 0 0.1645659 -0.986366 0 0.05409067 -0.9985361 0 0.05409145 -0.998536 0 -0.05409145 -0.998536 0 -0.05409067 -0.9985361 0 -0.1645659 -0.986366 0 -0.1645659 -0.986366 0 -0.2820459 -0.959401 0 -0.2820463 -0.9594008 0 -0.411405 -0.9114526 0 -0.4114056 -0.9114524 0 -0.5567172 -0.830702 0 -0.5567174 -0.830702 0 -0.717132 -0.6969375 0 -0.7171331 -0.6969363 0 -0.8756461 -0.4829533 0 -0.8756455 -0.4829542 0 -0.9843417 -0.176271 0 -0.9843416 -0.1762716 0 0 1 0 0 1 0 0 1 0 0.9843416 -0.1762716 0 0.9843416 -0.1762716 0 -0.9843416 -0.1762716 0 -0.9843417 -0.176271 0 -0.8756456 -0.4829542 0 -0.8756461 -0.4829533 0 -0.7171331 -0.6969363 0 -0.717132 -0.6969375 0 -0.5567173 -0.830702 0 -0.5567172 -0.8307021 0 -0.4114056 -0.9114524 0 -0.4114051 -0.9114526 0 -0.2820463 -0.9594008 0 -0.2820459 -0.9594009 0 -0.164566 -0.9863661 0 -0.1645659 -0.9863661 0 -0.05409067 -0.9985361 0 -0.05409145 -0.998536 0 0.05409145 -0.998536 0 0.05409067 -0.9985361 0 0.1645659 -0.9863661 0 0.164566 -0.9863661 0 0.2820459 -0.9594009 0 0.2820463 -0.9594008 0 0.4114049 -0.9114527 0 0.4114055 -0.9114524 0 0.5567172 -0.8307021 0 0.5567173 -0.830702 0 0.717132 -0.6969375 0 0.7171331 -0.6969363 0</float_array>
          <technique_common>
            <accessor source="#Cube_001-mesh-normals-array" count="206" stride="3">
              <param name="X" type="float"/>
              <param name="Y" type="float"/>
              <param name="Z" type="float"/>
            </accessor>
          </technique_common>
        </source>
        <source id="Cube_001-mesh-map-0">
          <float_array id="Cube_001-mesh-map-0-array" count="1236">0.625 0 0.375 0.25 0.375 0 0.625 0.25 0.375 0.5 0.375 0.25 0.625 0.5 0.375 0.75 0.375 0.5 0.625 0.75 0.375 1 0.375 0.75 0.375 0.5 0.125 0.75 0.125 0.5 0.875 0.5 0.625 0.75 0.625 0.5 0.5393581 0.1374095 0.5214403 0.1806671 0.5123057 0.2265892 0.734375 0.75 0.71875 0.5 0.734375 0.5 0.71875 0.75 0.703125 0.5 0.71875 0.5 0.734375 1 0.71875 0.75 0.734375 0.75 0.71875 1 0.703125 0.75 0.71875 0.75 0.703125 1 0.6875 0.75 0.703125 0.75 0.703125 0.75 0.6875 0.5 0.703125 0.5 0.4606419 0.1374095 0.4785597 0.1806671 0.4876942 0.2265892 0.6875 1 0.671875 0.75 0.6875 0.75 0.671875 1 0.65625 0.75 0.671875 0.75 0.65625 1 0.640625 0.75 0.65625 0.75 0.640625 1 0.625 0.75 0.640625 0.75 0.625 1 0.609375 0.75 0.625 0.75 0.609375 1 0.59375 0.75 0.609375 0.75 0.59375 1 0.578125 0.75 0.59375 0.75 0.578125 1 0.5625 0.75 0.578125 0.75 0.5625 1 0.546875 0.75 0.5625 0.75 0.546875 1 0.53125 0.75 0.546875 0.75 0.53125 1 0.515625 0.75 0.53125 0.75 0.515625 1 0.5 0.75 0.515625 0.75 0.5 1 0.484375 0.75 0.5 0.75 0.484375 1 0.46875 0.75 0.484375 0.75 0.46875 1 0.453125 0.75 0.46875 0.75 0.453125 1 0.4375 0.75 0.453125 0.75 0.4375 1 0.421875 0.75 0.4375 0.75 0.421875 1 0.40625 0.75 0.421875 0.75 0.40625 1 0.390625 0.75 0.40625 0.75 0.390625 1 0.375 0.75 0.390625 0.75 0.375 1 0.359375 0.75 0.375 0.75 0.359375 1 0.34375 0.75 0.359375 0.75 0.34375 1 0.328125 0.75 0.34375 0.75 0.328125 1 0.3125 0.75 0.328125 0.75 0.3125 1 0.296875 0.75 0.3125 0.75 0.296875 1 0.28125 0.75 0.296875 0.75 0.28125 1 0.265625 0.75 0.28125 0.75 0.265625 1 0.2506056 0.75 0.265625 0.75 0.4888478 0.9851338 0.5388478 0.7664653 0.4888479 0.7664654 0.734375 0.75 0.7493944 1 0.734375 1 0.734375 0.5 0.7493944 0.75 0.734375 0.75 0.265625 0.75 0.2506056 0.5 0.265625 0.5 0.28125 0.75 0.265625 0.5 0.28125 0.5 0.296875 0.75 0.28125 0.5 0.296875 0.5 0.3125 0.75 0.296875 0.5 0.3125 0.5 0.328125 0.75 0.3125 0.5 0.328125 0.5 0.34375 0.75 0.328125 0.5 0.34375 0.5 0.359375 0.75 0.34375 0.5 0.359375 0.5 0.375 0.75 0.359375 0.5 0.375 0.5 0.390625 0.75 0.375 0.5 0.390625 0.5 0.40625 0.75 0.390625 0.5 0.40625 0.5 0.421875 0.75 0.40625 0.5 0.421875 0.5 0.4375 0.75 0.421875 0.5 0.4375 0.5 0.453125 0.75 0.4375 0.5 0.453125 0.5 0.46875 0.75 0.453125 0.5 0.46875 0.5 0.484375 0.75 0.46875 0.5 0.484375 0.5 0.5 0.75 0.484375 0.5 0.5 0.5 0.515625 0.75 0.5 0.5 0.515625 0.5 0.53125 0.75 0.515625 0.5 0.53125 0.5 0.546875 0.75 0.53125 0.5 0.546875 0.5 0.5625 0.75 0.546875 0.5 0.5625 0.5 0.578125 0.75 0.5625 0.5 0.578125 0.5 0.59375 0.75 0.578125 0.5 0.59375 0.5 0.609375 0.75 0.59375 0.5 0.609375 0.5 0.625 0.75 0.609375 0.5 0.625 0.5 0.640625 0.75 0.625 0.5 0.640625 0.5 0.65625 0.75 0.640625 0.5 0.65625 0.5 0.671875 0.75 0.65625 0.5 0.671875 0.5 0.6875 0.75 0.671875 0.5 0.6875 0.5 0.625 0 0.625 0.25 0.375 0.25 0.625 0.25 0.625 0.5 0.375 0.5 0.625 0.5 0.625 0.75 0.375 0.75 0.625 0.75 0.625 1 0.375 1 0.375 0.5 0.375 0.75 0.125 0.75 0.875 0.5 0.875 0.75 0.625 0.75 0.5100893 0.2490926 0.9899107 0.2490926 0.7265892 0.01230573 0.9899107 0.2490926 0.9876943 0.2265892 0.9606419 0.1374095 0.7265892 0.01230573 0.9899107 0.2490926 0.7734108 0.01230573 0.9876943 0.2265892 0.9853885 0.2031783 0.9785597 0.1806671 0.9785597 0.1806671 0.9717311 0.1581559 0.9606419 0.1374095 0.9606419 0.1374095 0.9495527 0.1166631 0.9346292 0.09847873 0.9346292 0.09847873 0.9197056 0.08029437 0.9015212 0.06537079 0.9015212 0.06537079 0.8833369 0.05044728 0.8625904 0.03935807 0.8625904 0.03935807 0.841844 0.02826887 0.8193328 0.0214402 0.8193328 0.0214402 0.7968217 0.01461154 0.7734108 0.01230573 0.7734108 0.01230573 0.75 0.00999999 0.7265892 0.01230573 0.7265892 0.01230573 0.7031784 0.01461154 0.6806672 0.0214402 0.6806672 0.0214402 0.658156 0.02826887 0.6374096 0.03935807 0.6374096 0.03935807 0.6166632 0.05044728 0.5984788 0.06537079 0.5984788 0.06537079 0.5802944 0.08029437 0.5653708 0.09847873 0.5653708 0.09847873 0.5504473 0.1166631 0.5393581 0.1374095 0.5393581 0.1374095 0.5282689 0.1581559 0.5214403 0.1806671 0.5214403 0.1806671 0.5146116 0.2031783 0.5123057 0.2265892 0.5123057 0.2265892 0.5100893 0.2490926 0.5393581 0.1374095 0.9876943 0.2265892 0.9785597 0.1806671 0.9606419 0.1374095 0.9606419 0.1374095 0.9346292 0.09847873 0.9899107 0.2490926 0.9346292 0.09847873 0.9015212 0.06537079 0.9899107 0.2490926 0.9015212 0.06537079 0.8625904 0.03935807 0.9899107 0.2490926 0.8625904 0.03935807 0.8193328 0.0214402 0.9899107 0.2490926 0.8193328 0.0214402 0.7734108 0.01230573 0.9899107 0.2490926 0.7265892 0.01230573 0.6806672 0.0214402 0.5100893 0.2490926 0.6806672 0.0214402 0.6374096 0.03935807 0.5100893 0.2490926 0.6374096 0.03935807 0.5984788 0.06537079 0.5100893 0.2490926 0.5984788 0.06537079 0.5653708 0.09847873 0.5100893 0.2490926 0.5100893 0.2490926 0.5653708 0.09847873 0.5393581 0.1374095 0.734375 0.75 0.71875 0.75 0.71875 0.5 0.71875 0.75 0.703125 0.75 0.703125 0.5 0.734375 1 0.71875 1 0.71875 0.75 0.71875 1 0.703125 1 0.703125 0.75 0.703125 1 0.6875 1 0.6875 0.75 0.703125 0.75 0.6875 0.75 0.6875 0.5 0.01230573 0.2265892 0.01461154 0.2031783 0.0214402 0.1806671 0.0214402 0.1806671 0.02826887 0.1581559 0.03935807 0.1374095 0.03935807 0.1374095 0.05044728 0.1166631 0.06537079 0.09847873 0.06537079 0.09847873 0.08029437 0.08029437 0.09847873 0.06537079 0.09847873 0.06537079 0.1166631 0.05044728 0.1374095 0.03935807 0.1374095 0.03935807 0.1581559 0.02826887 0.1806671 0.0214402 0.1806671 0.0214402 0.2031783 0.01461154 0.2265892 0.01230573 0.2265892 0.01230573 0.25 0.00999999 0.2734109 0.01230573 0.2734109 0.01230573 0.2968217 0.01461154 0.3193328 0.0214402 0.3193328 0.0214402 0.341844 0.02826887 0.3625904 0.03935807 0.3625904 0.03935807 0.3833369 0.05044728 0.4015212 0.06537079 0.4015212 0.06537079 0.4197056 0.08029437 0.4346292 0.09847873 0.4346292 0.09847873 0.4495527 0.1166631 0.4606419 0.1374095 0.4606419 0.1374095 0.4717311 0.1581559 0.4785597 0.1806671 0.4785597 0.1806671 0.4853885 0.2031783 0.4876942 0.2265892 0.4876942 0.2265892 0.4899106 0.2490926 0.4606419 0.1374095 0.4899106 0.2490926 0.01008933 0.2490926 0.2265892 0.01230573 0.3193328 0.0214402 0.4899106 0.2490926 0.2734109 0.01230573 0.01008933 0.2490926 0.01230573 0.2265892 0.03935807 0.1374095 0.01230573 0.2265892 0.0214402 0.1806671 0.03935807 0.1374095 0.03935807 0.1374095 0.06537079 0.09847873 0.01008933 0.2490926 0.06537079 0.09847873 0.09847873 0.06537079 0.01008933 0.2490926 0.09847873 0.06537079 0.1374095 0.03935807 0.01008933 0.2490926 0.1374095 0.03935807 0.1806671 0.0214402 0.01008933 0.2490926 0.1806671 0.0214402 0.2265892 0.01230573 0.01008933 0.2490926 0.2265892 0.01230573 0.2734109 0.01230573 0.4899106 0.2490926 0.3193328 0.0214402 0.3625904 0.03935807 0.4899106 0.2490926 0.3625904 0.03935807 0.4015212 0.06537079 0.4899106 0.2490926 0.4899106 0.2490926 0.4015212 0.06537079 0.4346292 0.09847873 0.4346292 0.09847873 0.4606419 0.1374095 0.4899106 0.2490926 0.6875 1 0.671875 1 0.671875 0.75 0.671875 1 0.65625 1 0.65625 0.75 0.65625 1 0.640625 1 0.640625 0.75 0.640625 1 0.625 1 0.625 0.75 0.625 1 0.609375 1 0.609375 0.75 0.609375 1 0.59375 1 0.59375 0.75 0.59375 1 0.578125 1 0.578125 0.75 0.578125 1 0.5625 1 0.5625 0.75 0.5625 1 0.546875 1 0.546875 0.75 0.546875 1 0.53125 1 0.53125 0.75 0.53125 1 0.515625 1 0.515625 0.75 0.515625 1 0.5 1 0.5 0.75 0.5 1 0.484375 1 0.484375 0.75 0.484375 1 0.46875 1 0.46875 0.75 0.46875 1 0.453125 1 0.453125 0.75 0.453125 1 0.4375 1 0.4375 0.75 0.4375 1 0.421875 1 0.421875 0.75 0.421875 1 0.40625 1 0.40625 0.75 0.40625 1 0.390625 1 0.390625 0.75 0.390625 1 0.375 1 0.375 0.75 0.375 1 0.359375 1 0.359375 0.75 0.359375 1 0.34375 1 0.34375 0.75 0.34375 1 0.328125 1 0.328125 0.75 0.328125 1 0.3125 1 0.3125 0.75 0.3125 1 0.296875 1 0.296875 0.75 0.296875 1 0.28125 1 0.28125 0.75 0.28125 1 0.265625 1 0.265625 0.75 0.265625 1 0.2506056 1 0.2506056 0.75 0.4888479 0.7664654 0.4388478 0.7664654 0.4388478 0.9851339 0.4888478 0.9851338 0.5388478 0.9851339 0.5388478 0.7664653 0.4888479 0.7664654 0.4388478 0.9851339 0.4888478 0.9851338 0.734375 0.75 0.7493944 0.75 0.7493944 1 0.734375 0.5 0.7493944 0.5 0.7493944 0.75 0.265625 0.75 0.2506056 0.75 0.2506056 0.5 0.28125 0.75 0.265625 0.75 0.265625 0.5 0.296875 0.75 0.28125 0.75 0.28125 0.5 0.3125 0.75 0.296875 0.75 0.296875 0.5 0.328125 0.75 0.3125 0.75 0.3125 0.5 0.34375 0.75 0.328125 0.75 0.328125 0.5 0.359375 0.75 0.34375 0.75 0.34375 0.5 0.375 0.75 0.359375 0.75 0.359375 0.5 0.390625 0.75 0.375 0.75 0.375 0.5 0.40625 0.75 0.390625 0.75 0.390625 0.5 0.421875 0.75 0.40625 0.75 0.40625 0.5 0.4375 0.75 0.421875 0.75 0.421875 0.5 0.453125 0.75 0.4375 0.75 0.4375 0.5 0.46875 0.75 0.453125 0.75 0.453125 0.5 0.484375 0.75 0.46875 0.75 0.46875 0.5 0.5 0.75 0.484375 0.75 0.484375 0.5 0.515625 0.75 0.5 0.75 0.5 0.5 0.53125 0.75 0.515625 0.75 0.515625 0.5 0.546875 0.75 0.53125 0.75 0.53125 0.5 0.5625 0.75 0.546875 0.75 0.546875 0.5 0.578125 0.75 0.5625 0.75 0.5625 0.5 0.59375 0.75 0.578125 0.75 0.578125 0.5 0.609375 0.75 0.59375 0.75 0.59375 0.5 0.625 0.75 0.609375 0.75 0.609375 0.5 0.640625 0.75 0.625 0.75 0.625 0.5 0.65625 0.75 0.640625 0.75 0.640625 0.5 0.671875 0.75 0.65625 0.75 0.65625 0.5 0.6875 0.75 0.671875 0.75 0.671875 0.5</float_array>
          <technique_common>
            <accessor source="#Cube_001-mesh-map-0-array" count="618" stride="2">
              <param name="S" type="float"/>
              <param name="T" type="float"/>
            </accessor>
          </technique_common>
        </source>
        <vertices id="Cube_001-mesh-vertices">
          <input semantic="POSITION" source="#Cube_001-mesh-positions"/>
        </vertices>
        <triangles count="206">
          <input semantic="VERTEX" source="#Cube_001-mesh-vertices" offset="0"/>
          <input semantic="NORMAL" source="#Cube_001-mesh-normals" offset="1"/>
          <input semantic="TEXCOORD" source="#Cube_001-mesh-map-0" offset="2" set="0"/>
          <p>1 0 0 2 0 1 0 0 2 3 1 3 6 1 4 2 1 5 7 2 6 4 2 7 6 2 8 5 3 9 0 3 10 4 3 11 6 4 12 0 4 13 2 4 14 3 5 15 5 5 16 7 5 17 83 6 18 81 6 19 79 6 20 12 7 21 8 7 22 9 7 23 11 8 24 10 8 25 8 8 26 75 9 27 11 9 28 12 9 29 13 10 30 14 10 31 11 10 32 16 11 33 15 11 34 14 11 35 14 12 36 106 12 37 10 12 38 18 13 39 16 13 40 75 13 41 17 14 42 19 14 43 15 14 44 18 15 45 21 15 46 19 15 47 20 16 48 23 16 49 21 16 50 22 17 51 25 17 52 23 17 53 24 18 54 27 18 55 25 18 56 26 19 57 29 19 58 27 19 59 28 20 60 31 20 61 29 20 62 30 21 63 33 21 64 31 21 65 32 22 66 35 22 67 33 22 68 34 23 69 37 23 70 35 23 71 36 24 72 39 24 73 37 24 74 38 25 75 41 25 76 39 25 77 40 26 78 43 26 79 41 26 80 42 27 81 45 27 82 43 27 83 44 28 84 47 28 85 45 28 86 46 29 87 49 29 88 47 29 89 48 30 90 51 30 91 49 30 92 50 31 93 53 31 94 51 31 95 52 32 96 55 32 97 53 32 98 54 33 99 57 33 100 55 33 101 56 34 102 59 34 103 57 34 104 58 35 105 61 35 106 59 35 107 60 36 108 63 36 109 61 36 110 62 37 111 65 37 112 63 37 113 64 38 114 67 38 115 65 38 116 66 39 117 69 39 118 67 39 119 68 40 120 71 40 121 69 40 122 70 41 123 73 41 124 71 41 125 73 42 126 74 42 127 76 42 128 12 43 129 74 43 130 75 43 131 9 44 132 76 44 133 12 44 134 71 45 135 78 45 136 79 45 137 69 46 138 79 46 139 80 46 140 67 47 141 80 47 142 81 47 143 65 48 144 81 48 145 82 48 146 63 49 147 82 49 148 83 49 149 61 50 150 83 50 151 84 50 152 59 51 153 84 51 154 85 51 155 57 52 156 85 52 157 86 52 158 55 53 159 86 53 160 87 53 161 53 54 162 87 54 163 88 54 164 51 55 165 88 55 166 89 55 167 49 56 168 89 56 169 90 56 170 47 57 171 90 57 172 91 57 173 45 58 174 91 58 175 92 58 176 43 59 177 92 59 178 93 59 179 41 60 180 93 60 181 94 60 182 39 61 183 94 61 184 95 61 185 37 62 186 95 62 187 96 62 188 35 63 189 96 63 190 97 63 191 33 64 192 97 64 193 98 64 194 31 65 195 98 65 196 99 65 197 29 66 198 99 66 199 100 66 200 27 67 201 100 67 202 101 67 203 25 68 204 101 68 205 102 68 206 23 69 207 102 69 208 103 69 209 21 70 210 103 70 211 104 70 212 19 71 213 104 71 214 105 71 215 15 72 216 105 72 217 106 72 218 1 73 219 3 73 220 2 73 221 3 74 222 7 74 223 6 74 224 7 75 225 5 75 226 4 75 227 5 76 228 1 76 229 0 76 230 6 77 231 4 77 232 0 77 233 3 78 234 1 78 235 5 78 236 78 79 237 77 79 238 93 79 239 77 80 240 9 80 241 105 80 242 93 81 243 77 81 244 95 81 245 9 82 246 8 82 247 10 82 248 10 83 249 106 83 250 105 83 251 105 84 252 104 84 253 103 84 254 103 85 255 102 85 256 101 85 257 101 86 258 100 86 259 99 86 260 99 87 261 98 87 262 97 87 263 97 88 264 96 88 265 95 88 266 95 89 267 94 89 268 93 89 269 93 90 270 92 90 271 91 90 272 91 91 273 90 91 274 89 91 275 89 92 276 88 92 277 87 92 278 87 93 279 86 93 280 85 93 281 85 94 282 84 94 283 83 94 284 83 95 285 82 95 286 81 95 287 81 96 288 80 96 289 79 96 290 79 97 291 78 97 292 83 97 293 9 98 294 10 98 295 105 98 296 105 99 297 103 99 298 77 99 299 103 100 300 101 100 301 77 100 302 101 101 303 99 101 304 77 101 305 99 102 306 97 102 307 77 102 308 97 103 309 95 103 310 77 103 311 93 104 312 91 104 313 78 104 314 91 105 315 89 105 316 78 105 317 89 106 318 87 106 319 78 106 320 87 107 321 85 107 322 78 107 323 78 108 324 85 108 325 83 108 326 12 109 327 11 109 328 8 109 329 11 110 330 14 110 331 10 110 332 75 111 333 13 111 334 11 111 335 13 112 336 16 112 337 14 112 338 16 113 339 17 113 340 15 113 341 14 114 342 15 114 343 106 114 344 70 115 345 68 115 346 66 115 347 66 116 348 64 116 349 62 116 350 62 117 351 60 117 352 58 117 353 58 118 354 56 118 355 54 118 356 54 119 357 52 119 358 50 119 359 50 120 360 48 120 361 46 120 362 46 121 363 44 121 364 42 121 365 42 122 366 40 122 367 38 122 368 38 123 369 36 123 370 34 123 371 34 124 372 32 124 373 30 124 374 30 125 375 28 125 376 26 125 377 26 126 378 24 126 379 22 126 380 22 127 381 20 127 382 18 127 383 18 128 384 17 128 385 16 128 386 16 129 387 13 129 388 75 129 389 75 130 390 74 130 391 18 130 392 74 131 393 72 131 394 42 131 395 34 132 396 74 132 397 38 132 398 72 133 399 70 133 400 62 133 401 70 134 402 66 134 403 62 134 404 62 135 405 58 135 406 72 135 407 58 136 408 54 136 409 72 136 410 54 137 411 50 137 412 72 137 413 50 138 414 46 138 415 72 138 416 46 139 417 42 139 418 72 139 419 42 140 420 38 140 421 74 140 422 34 141 423 30 141 424 74 141 425 30 142 426 26 142 427 74 142 428 74 143 429 26 143 430 22 143 431 22 144 432 18 144 433 74 144 434 17 145 435 18 145 436 19 145 437 18 146 438 20 146 439 21 146 440 20 147 441 22 147 442 23 147 443 22 148 444 24 148 445 25 148 446 24 149 447 26 149 448 27 149 449 26 150 450 28 150 451 29 150 452 28 151 453 30 151 454 31 151 455 30 152 456 32 152 457 33 152 458 32 153 459 34 153 460 35 153 461 34 154 462 36 154 463 37 154 464 36 155 465 38 155 466 39 155 467 38 156 468 40 156 469 41 156 470 40 157 471 42 157 472 43 157 473 42 158 474 44 158 475 45 158 476 44 159 477 46 159 478 47 159 479 46 160 480 48 160 481 49 160 482 48 161 483 50 161 484 51 161 485 50 162 486 52 162 487 53 162 488 52 163 489 54 163 490 55 163 491 54 164 492 56 164 493 57 164 494 56 165 495 58 165 496 59 165 497 58 166 498 60 166 499 61 166 500 60 167 501 62 167 502 63 167 503 62 168 504 64 168 505 65 168 506 64 169 507 66 169 508 67 169 509 66 170 510 68 170 511 69 170 512 68 171 513 70 171 514 71 171 515 70 172 516 72 172 517 73 172 518 76 173 519 77 173 520 78 173 521 73 174 522 72 174 523 74 174 524 76 175 525 78 175 526 73 175 527 12 176 528 76 176 529 74 176 530 9 177 531 77 177 532 76 177 533 71 178 534 73 178 535 78 178 536 69 179 537 71 179 538 79 179 539 67 180 540 69 180 541 80 180 542 65 181 543 67 181 544 81 181 545 63 182 546 65 182 547 82 182 548 61 183 549 63 183 550 83 183 551 59 184 552 61 184 553 84 184 554 57 185 555 59 185 556 85 185 557 55 186 558 57 186 559 86 186 560 53 187 561 55 187 562 87 187 563 51 188 564 53 188 565 88 188 566 49 189 567 51 189 568 89 189 569 47 190 570 49 190 571 90 190 572 45 191 573 47 191 574 91 191 575 43 192 576 45 192 577 92 192 578 41 193 579 43 193 580 93 193 581 39 194 582 41 194 583 94 194 584 37 195 585 39 195 586 95 195 587 35 196 588 37 196 589 96 196 590 33 197 591 35 197 592 97 197 593 31 198 594 33 198 595 98 198 596 29 199 597 31 199 598 99 199 599 27 200 600 29 200 601 100 200 602 25 201 603 27 201 604 101 201 605 23 202 606 25 202 607 102 202 608 21 203 609 23 203 610 103 203 611 19 204 612 21 204 613 104 204 614 15 205 615 19 205 616 105 205 617</p>
        </triangles>
      </mesh>
    </geometry>
  </library_geometries>
  <library_visual_scenes>
    <visual_scene id="Scene" name="Scene">
      <node id="tmp_export_Cube_001" name="tmp_export_Cube.001" type="NODE">
        <matrix sid="transform">1 0 0 0 0 1 0 0 0 0 1 0 0 0 0 1</matrix>
        <instance_geometry url="#Cube_001-mesh" name="tmp_export_Cube.001"/>
      </node>
    </visual_scene>
  </library_visual_scenes>
  <scene>
    <instance_visual_scene url="#Scene"/>
  </scene>
</COLLADA>