<?xml version="1.0" encoding="utf-8"?>
<COLLADA xmlns="http://www.collada.org/2005/11/COLLADASchema" version="1.4.1" xmlns:xsi="http://www.w3.org/2001/XMLSchema-instance">
  <asset>
    <contributor>
      <author>Blender User</author>
      <authoring_tool>Blender 4.2.18 LTS commit date:2026-02-16, commit time:13:37, hash:d71e3422e438</authoring_tool>
    </contributor>
    <created>2026-04-09T16:07:41</created>
    <modified>2026-04-09T16:07:41</modified>
    <unit name="meter" meter="1"/>
    <up_axis>Z_UP</up_axis>
  </asset>
  <library_effects/>
  <library_images/>
  <library_geometries>
    <geometry id="Cylinder_009-mesh" name="Cylinder.009">
      <mesh>
        <source id="Cylinder_009-mesh-positions">
          <float_array id="Cylinder_009-mesh-positions-array" count="408">0 1 -1 0 1 1 0.1950903 0.9807853 -1 0.1950903 0.9807853 1 0.3826835 0.9238795 -1 0.3826835 0.9238795 1 0.5555703 0.8314696 -1 0.5555703 0.8314696 1 0.7071068 0.7071068 -1 0.7071068 0.7071068 1 0.8314696 0.5555703 -1 0.8314696 0.5555703 1 0.9238795 0.3826835 -1 0.9238795 0.3826835 1 0.9807853 0.1950903 -1 0.9807853 0.1950903 1 1 0 -1 1 0 1 0.9807853 -0.1950903 -1 0.9807853 -0.1950903 1 0.9238795 -0.3826835 -1 0.9238795 -0.3826835 1 0.8314696 -0.5555703 -1 0.8314696 -0.5555703 1 0.7071068 -0.7071068 -1 0.7071068 -0.7071068 1 0.5555703 -0.8314696 -1 0.5555703 -0.8314696 1 0.3826835 -0.9238795 -1 0.3826835 -0.9238795 1 0.1950903 -0.9807853 -1 0.1950903 -0.9807853 1 0 -1 -1 0 -1 1 -0.1950903 -0.9807853 -1 -0.1950903 -0.9807853 1 -0.3826835 -0.9238795 -1 -0.3826835 -0.9238795 1 -0.5555703 -0.8314696 -1 -0.5555703 -0.8314696 1 -0.7071068 -0.7071068 -1 -0.7071068 -0.7071068 1 -0.8314696 -0.5555703 -1 -0.8314696 -0.5555703 1 -0.9238795 -0.3826835 -1 -0.9238795 -0.3826835 1 -0.9807853 -0.1950903 -1 -0.9807853 -0.1950903 1 -1 0 -1 -1 0 1 -0.9807853 0.1950903 -1 -0.9807853 0.1950903 1 -0.9238795 0.3826835 -1 -0.9238795 0.3826835 1 -0.8314696 0.5555703 -1 -0.8314696 0.5555703 1 -0.7071068 0.7071068 -1 -0.7071068 0.7071068 1 -0.5555703 0.8314696 -1 -0.5555703 0.8314696 1 -0.3826835 0.9238795 -1 -0.3826835 0.9238795 1 -0.1950903 0.9807853 -1 -0.1950903 0.9807853 1 -1 0 -1 -1 0 1 -1 6 -1 -1 6 1 1 0 -1 1 0 1 1 6 -1 1 6 1 0 7 -1 0 7 1 0.1950903 6.980785 -1 0.1950903 6.980785 1 0.3826835 6.92388 -1 0.3826835 6.92388 1 0.5555703 6.83147 -1 0.5555703 6.83147 1 0.7071068 6.707107 -1 0.7071068 6.707107 1 0.8314696 6.55557 -1 0.8314696 6.55557 1 0.9238795 6.382683 -1 0.9238795 6.382683 1 0.9807853 6.19509 -1 0.9807853 6.19509 1 1 6 -1 1 6 1 0.9807853 5.80491 -1 0.9807853 5.80491 1 0.9238795 5.617317 -1 0.9238795 5.617317 1 0.8314696 5.44443 -1 0.8314696 5.44443 1 0.7071068 5.292893 -1 0.7071068 5.292893 1 0.5555703 5.16853 -1 0.5555703 5.16853 1 0.3826835 5.07612 -1 0.3826835 5.07612 1 0.1950903 5.019215 -1 0.1950903 5.019215 1 0 5 -1 0 5 1 -0.1950903 5.019215 -1 -0.1950903 5.019215 1 -0.3826835 5.07612 -1 -0.3826835 5.07612 1 -0.5555703 5.16853 -1 -0.5555703 5.16853 1 -0.7071068 5.292893 -1 -0.7071068 5.292893 1 -0.8314696 5.44443 -1 -0.8314696 5.44443 1 -0.9238795 5.617317 -1 -0.9238795 5.617317 1 -0.9807853 5.80491 -1 -0.9807853 5.80491 1 -1 6 -1 -1 6 1 -0.9807853 6.19509 -1 -0.9807853 6.19509 1 -0.9238795 6.382683 -1 -0.9238795 6.382683 1 -0.8314696 6.55557 -1 -0.8314696 6.55557 1 -0.7071068 6.707107 -1 -0.7071068 6.707107 1 -0.5555703 6.83147 -1 -0.5555703 6.83147 1 -0.3826835 6.92388 -1 -0.3826835 6.92388 1 -0.1950903 6.980785 -1 -0.1950903 6.980785 1</float_array>
          <technique_common>
            <accessor source="#Cylinder_009-mesh-positions-array" count="136" stride="3">
              <param name="X" type="float"/>
              <param name="Y" type="float"/>
              <param name="Z" type="float"/>
            </accessor>
          </technique_common>
        </source>
        <source id="Cylinder_009-mesh-normals">
          <float_array id="Cylinder_009-mesh-normals-array" count="780">0.09801727 0.9951847 0 0.2902846 0.9569404 0 0.4713967 0.8819213 0 0.6343933 0.7730104 0 0.7730104 0.6343933 0 0.8819213 0.4713967 0 0.9569404 0.2902846 0 0.9951847 0.09801727 0 0.9951847 -0.09801727 0 0.9569404 -0.2902846 0 0.8819213 -0.4713967 0 0.7730104 -0.6343933 0 0.6343933 -0.7730104 0 0.4713967 -0.8819213 0 0.2902846 -0.9569404 0 0.09801727 -0.9951847 0 -0.09801727 -0.9951847 0 -0.2902846 -0.9569404 0 -0.4713967 -0.8819213 0 -0.6343933 -0.7730104 0 -0.7730104 -0.6343933 0 -0.8819213 -0.4713967 0 -0.9569404 -0.2902846 0 -0.9951847 -0.09801727 0 -0.9951847 0.09801727 0 -0.9569404 0.2902846 0 -0.8819213 0.4713967 0 -0.7730104 0.6343933 0 -0.6343933 0.7730104 0 -0.4713967 0.8819213 0 0 0 1 -0.2902846 0.9569404 0 -0.09801727 0.9951847 0 0 0 -1 -1 0 0 0 1 0 1 0 0 0 -1 0 0 0 -1 0 0 1 0.09801667 0.9951848 0 0.2902846 0.9569404 0 0.4713974 0.8819209 0 0.6343937 0.7730101 0 0.7730103 0.6343935 0 0.8819214 0.4713966 0 0.9569402 0.2902848 0 0.9951847 0.09801727 0 0.9951847 -0.09801727 0 0.9569402 -0.2902848 0 0.8819214 -0.4713966 0 0.7730103 -0.6343935 0 0.6343937 -0.7730101 0 0.4713974 -0.8819209 0 0.2902846 -0.9569404 0 0.09801667 -0.9951848 0 -0.09801667 -0.9951848 0 -0.2902846 -0.9569404 0 -0.4713974 -0.8819209 0 -0.6343937 -0.7730101 0 -0.7730103 -0.6343935 0 -0.8819214 -0.4713966 0 -0.9569402 -0.2902848 0 -0.9951847 -0.09801727 0 -0.9951847 0.09801727 0 -0.9569402 0.2902848 0 -0.8819214 0.4713966 0 -0.7730103 0.6343935 0 -0.6343937 0.7730101 0 -0.4713974 0.8819209 0 0 0 1 -0.2902846 0.9569404 0 -0.09801667 0.9951848 0 0 0 -1 0.09801727 0.9951847 0 0.2902846 0.9569404 0 0.4713967 0.8819213 0 0.6343933 0.7730104 0 0.7730104 0.6343933 0 0.8819213 0.4713967 0 0.9569404 0.2902846 0 0.9951847 0.09801727 0 0.9951847 -0.09801727 0 0.9569404 -0.2902846 0 0.8819213 -0.4713967 0 0.7730104 -0.6343933 0 0.6343933 -0.7730104 0 0.4713967 -0.8819213 0 0.2902846 -0.9569404 0 0.09801727 -0.9951847 0 -0.09801727 -0.9951847 0 -0.2902846 -0.9569404 0 -0.4713967 -0.8819213 0 -0.6343933 -0.7730104 0 -0.7730104 -0.6343933 0 -0.8819213 -0.4713967 0 -0.9569404 -0.2902846 0 -0.9951847 -0.09801727 0 -0.9951847 0.09801727 0 -0.9569404 0.2902846 0 -0.8819213 0.4713967 0 -0.7730104 0.6343933 0 -0.6343933 0.7730104 0 -0.4713967 0.8819213 0 0 0 1 0 0 1 0 0 1 0 0 1 0 0 1 0 0 1 0 0 1 0 0 1 0 0 1 0 0 1 0 0 1 0 0 1 0 0 1 0 0 1 0 0 1 0 0 1 0 0 1 0 0 1 0 0 1 0 0 1 0 0 1 0 0 1 0 0 1 0 0 1 0 0 1 0 0 1 0 0 1 0 0 1 0 0 1 -0.2902846 0.9569404 0 -0.09801727 0.9951847 0 0 0 -1 0 0 -1 0 0 -1 0 0 -1 0 0 -1 0 0 -1 0 0 -1 0 0 -1 0 0 -1 0 0 -1 0 0 -1 0 0 -1 0 0 -1 0 0 -1 0 0 -1 0 0 -1 0 0 -1 0 0 -1 0 0 -1 0 0 -1 0 0 -1 0 0 -1 0 0 -1 0 0 -1 0 0 -1 0 0 -1 0 0 -1 0 0 -1 0 0 -1 -1 0 0 0 1 0 1 0 0 0 -1 0 0 0 -1 0 0 1 0.09801667 0.9951848 0 0.2902846 0.9569404 0 0.4713974 0.8819209 0 0.6343937 0.7730101 0 0.7730103 0.6343935 0 0.8819214 0.4713966 0 0.9569402 0.2902848 0 0.9951847 0.09801727 0 0.9951847 -0.09801727 0 0.9569402 -0.2902848 0 0.8819214 -0.4713966 0 0.7730103 -0.6343935 0 0.6343937 -0.7730101 0 0.4713974 -0.8819209 0 0.2902846 -0.9569404 0 0.09801667 -0.9951848 0 -0.09801667 -0.9951848 0 -0.2902846 -0.9569404 0 -0.4713974 -0.8819209 0 -0.6343937 -0.7730101 0 -0.7730103 -0.6343935 0 -0.8819214 -0.4713966 0 -0.9569402 -0.2902848 0 -0.9951847 -0.09801727 0 -0.9951847 0.09801727 0 -0.9569402 0.2902848 0 -0.8819214 0.4713966 0 -0.7730103 0.6343935 0 -0.6343937 0.7730101 0 -0.4713974 0.8819209 0 0 0 1 0 0 1 0 0 1 0 0 1 0 0 1 0 0 1 0 0 1 0 0 1 0 0 1 0 0 1 0 0 1 0 0 1 0 0 1 0 0 1 0 0 1 0 0 1 0 0 1 0 0 1 0 0 1 0 0 1 0 0 1 0 0 1 0 0 1 0 0 1 0 0 1 0 0 1 0 0 1 0 0 1 0 0 1 -0.2902846 0.9569404 0 -0.09801667 0.9951848 0 0 0 -1 0 0 -1 0 0 -1 0 0 -1 0 0 -1 0 0 -1 0 0 -1 0 0 -1 0 0 -1 0 0 -1 0 0 -1 0 0 -1 0 0 -1 0 0 -1 0 0 -1 0 0 -1 0 0 -1 0 0 -1 0 0 -1 0 0 -1 0 0 -1 0 0 -1 0 0 -1 0 0 -1 0 0 -1 0 0 -1 0 0 -1 0 0 -1 0 0 -1</float_array>
          <technique_common>
            <accessor source="#Cylinder_009-mesh-normals-array" count="260" stride="3">
              <param name="X" type="float"/>
              <param name="Y" type="float"/>
              <param name="Z" type="float"/>
            </accessor>
          </technique_common>
        </source>
        <source id="Cylinder_009-mesh-map-0">
          <float_array id="Cylinder_009-mesh-map-0-array" count="1560">1 1 0.96875 0.5 1 0.5 0.96875 1 0.9375 0.5 0.96875 0.5 0.9375 1 0.90625 0.5 0.9375 0.5 0.90625 1 0.875 0.5 0.90625 0.5 0.875 1 0.84375 0.5 0.875 0.5 0.84375 1 0.8125 0.5 0.84375 0.5 0.8125 1 0.78125 0.5 0.8125 0.5 0.78125 1 0.75 0.5 0.78125 0.5 0.75 1 0.71875 0.5 0.75 0.5 0.71875 1 0.6875 0.5 0.71875 0.5 0.6875 1 0.65625 0.5 0.6875 0.5 0.65625 1 0.625 0.5 0.65625 0.5 0.625 1 0.59375 0.5 0.625 0.5 0.59375 1 0.5625 0.5 0.59375 0.5 0.5625 1 0.53125 0.5 0.5625 0.5 0.53125 1 0.5 0.5 0.53125 0.5 0.5 1 0.46875 0.5 0.5 0.5 0.46875 1 0.4375 0.5 0.46875 0.5 0.4375 1 0.40625 0.5 0.4375 0.5 0.40625 1 0.375 0.5 0.40625 0.5 0.375 1 0.34375 0.5 0.375 0.5 0.34375 1 0.3125 0.5 0.34375 0.5 0.3125 1 0.28125 0.5 0.3125 0.5 0.28125 1 0.25 0.5 0.28125 0.5 0.25 1 0.21875 0.5 0.25 0.5 0.21875 1 0.1875 0.5 0.21875 0.5 0.1875 1 0.15625 0.5 0.1875 0.5 0.15625 1 0.125 0.5 0.15625 0.5 0.125 1 0.09375 0.5 0.125 0.5 0.09375 1 0.0625 0.5 0.09375 0.5 0.1581559 0.02826887 0.4717311 0.1581559 0.341844 0.4717311 0.0625 1 0.03125 0.5 0.0625 0.5 0.03125 1 0 0.5 0.03125 0.5 0.7968217 0.01461154 0.5146116 0.2031783 0.7031784 0.4853885 0.625 0 0.375 0.25 0.375 0 0.625 0.25 0.375 0.5 0.375 0.25 0.625 0.5 0.375 0.75 0.375 0.5 0.625 0.75 0.375 1 0.375 0.75 0.375 0.5 0.125 0.75 0.125 0.5 0.875 0.5 0.625 0.75 0.625 0.5 1 1 0.96875 0.5 1 0.5 0.96875 1 0.9375 0.5 0.96875 0.5 0.9375 1 0.90625 0.5 0.9375 0.5 0.90625 1 0.875 0.5 0.90625 0.5 0.875 1 0.84375 0.5 0.875 0.5 0.84375 1 0.8125 0.5 0.84375 0.5 0.8125 1 0.78125 0.5 0.8125 0.5 0.78125 1 0.75 0.5 0.78125 0.5 0.75 1 0.71875 0.5 0.75 0.5 0.71875 1 0.6875 0.5 0.71875 0.5 0.6875 1 0.65625 0.5 0.6875 0.5 0.65625 1 0.625 0.5 0.65625 0.5 0.625 1 0.59375 0.5 0.625 0.5 0.59375 1 0.5625 0.5 0.59375 0.5 0.5625 1 0.53125 0.5 0.5625 0.5 0.53125 1 0.5 0.5 0.53125 0.5 0.5 1 0.46875 0.5 0.5 0.5 0.46875 1 0.4375 0.5 0.46875 0.5 0.4375 1 0.40625 0.5 0.4375 0.5 0.40625 1 0.375 0.5 0.40625 0.5 0.375 1 0.34375 0.5 0.375 0.5 0.34375 1 0.3125 0.5 0.34375 0.5 0.3125 1 0.28125 0.5 0.3125 0.5 0.28125 1 0.25 0.5 0.28125 0.5 0.25 1 0.21875 0.5 0.25 0.5 0.21875 1 0.1875 0.5 0.21875 0.5 0.1875 1 0.15625 0.5 0.1875 0.5 0.15625 1 0.125 0.5 0.15625 0.5 0.125 1 0.09375 0.5 0.125 0.5 0.09375 1 0.0625 0.5 0.09375 0.5 0.02826887 0.341844 0.1581559 0.02826887 0.4717311 0.1581559 0.0625 1 0.03125 0.5 0.0625 0.5 0.03125 1 0 0.5 0.03125 0.5 0.6166632 0.05044728 0.5146116 0.2031783 0.7031784 0.4853885 1 1 0.96875 1 0.96875 0.5 0.96875 1 0.9375 1 0.9375 0.5 0.9375 1 0.90625 1 0.90625 0.5 0.90625 1 0.875 1 0.875 0.5 0.875 1 0.84375 1 0.84375 0.5 0.84375 1 0.8125 1 0.8125 0.5 0.8125 1 0.78125 1 0.78125 0.5 0.78125 1 0.75 1 0.75 0.5 0.75 1 0.71875 1 0.71875 0.5 0.71875 1 0.6875 1 0.6875 0.5 0.6875 1 0.65625 1 0.65625 0.5 0.65625 1 0.625 1 0.625 0.5 0.625 1 0.59375 1 0.59375 0.5 0.59375 1 0.5625 1 0.5625 0.5 0.5625 1 0.53125 1 0.53125 0.5 0.53125 1 0.5 1 0.5 0.5 0.5 1 0.46875 1 0.46875 0.5 0.46875 1 0.4375 1 0.4375 0.5 0.4375 1 0.40625 1 0.40625 0.5 0.40625 1 0.375 1 0.375 0.5 0.375 1 0.34375 1 0.34375 0.5 0.34375 1 0.3125 1 0.3125 0.5 0.3125 1 0.28125 1 0.28125 0.5 0.28125 1 0.25 1 0.25 0.5 0.25 1 0.21875 1 0.21875 0.5 0.21875 1 0.1875 1 0.1875 0.5 0.1875 1 0.15625 1 0.15625 0.5 0.15625 1 0.125 1 0.125 0.5 0.125 1 0.09375 1 0.09375 0.5 0.09375 1 0.0625 1 0.0625 0.5 0.341844 0.4717311 0.2968217 0.4853885 0.25 0.49 0.25 0.49 0.2031783 0.4853885 0.341844 0.4717311 0.2031783 0.4853885 0.1581559 0.4717311 0.341844 0.4717311 0.1581559 0.4717311 0.1166631 0.4495527 0.08029437 0.4197056 0.08029437 0.4197056 0.05044728 0.3833369 0.02826887 0.341844 0.02826887 0.341844 0.01461154 0.2968217 0.00999999 0.25 0.00999999 0.25 0.01461154 0.2031783 0.02826887 0.341844 0.01461154 0.2031783 0.02826887 0.1581559 0.02826887 0.341844 0.02826887 0.1581559 0.05044728 0.1166631 0.08029437 0.08029437 0.08029437 0.08029437 0.1166631 0.05044728 0.1581559 0.02826887 0.1581559 0.02826887 0.2031783 0.01461154 0.341844 0.02826887 0.2031783 0.01461154 0.25 0.00999999 0.341844 0.02826887 0.25 0.00999999 0.2968217 0.01461154 0.341844 0.02826887 0.341844 0.02826887 0.3833369 0.05044728 0.4197056 0.08029437 0.4197056 0.08029437 0.4495527 0.1166631 0.4717311 0.1581559 0.4717311 0.1581559 0.4853885 0.2031783 0.4717311 0.341844 0.4853885 0.2031783 0.49 0.25 0.4717311 0.341844 0.49 0.25 0.4853885 0.2968217 0.4717311 0.341844 0.4717311 0.341844 0.4495527 0.3833369 0.4197056 0.4197056 0.4197056 0.4197056 0.3833369 0.4495527 0.341844 0.4717311 0.1581559 0.4717311 0.08029437 0.4197056 0.341844 0.4717311 0.08029437 0.4197056 0.02826887 0.341844 0.341844 0.4717311 0.02826887 0.1581559 0.08029437 0.08029437 0.02826887 0.341844 0.08029437 0.08029437 0.1581559 0.02826887 0.02826887 0.341844 0.341844 0.02826887 0.4197056 0.08029437 0.1581559 0.02826887 0.4197056 0.08029437 0.4717311 0.1581559 0.1581559 0.02826887 0.4717311 0.341844 0.4197056 0.4197056 0.4717311 0.1581559 0.4197056 0.4197056 0.341844 0.4717311 0.4717311 0.1581559 0.341844 0.4717311 0.02826887 0.341844 0.1581559 0.02826887 0.0625 1 0.03125 1 0.03125 0.5 0.03125 1 0 1 0 0.5 0.7031784 0.4853885 0.75 0.49 0.7968217 0.4853885 0.7968217 0.4853885 0.841844 0.4717311 0.8833369 0.4495527 0.8833369 0.4495527 0.9197056 0.4197056 0.9495527 0.3833369 0.9495527 0.3833369 0.9717311 0.341844 0.9853885 0.2968217 0.9853885 0.2968217 0.99 0.25 0.9853885 0.2031783 0.9853885 0.2031783 0.9717311 0.1581559 0.9495527 0.1166631 0.9495527 0.1166631 0.9197056 0.08029437 0.8833369 0.05044728 0.8833369 0.05044728 0.841844 0.02826887 0.7968217 0.01461154 0.7968217 0.01461154 0.75 0.00999999 0.7031784 0.01461154 0.7031784 0.01461154 0.658156 0.02826887 0.6166632 0.05044728 0.6166632 0.05044728 0.5802944 0.08029437 0.5504473 0.1166631 0.5504473 0.1166631 0.5282689 0.1581559 0.5146116 0.2031783 0.5146116 0.2031783 0.51 0.25 0.5146116 0.2968217 0.5146116 0.2968217 0.5282689 0.341844 0.5504473 0.3833369 0.5504473 0.3833369 0.5802944 0.4197056 0.6166632 0.4495527 0.6166632 0.4495527 0.658156 0.4717311 0.7031784 0.4853885 0.7031784 0.4853885 0.7968217 0.4853885 0.9853885 0.2968217 0.7968217 0.4853885 0.8833369 0.4495527 0.9853885 0.2968217 0.8833369 0.4495527 0.9495527 0.3833369 0.9853885 0.2968217 0.9853885 0.2968217 0.9853885 0.2031783 0.7968217 0.01461154 0.9853885 0.2031783 0.9495527 0.1166631 0.7968217 0.01461154 0.9495527 0.1166631 0.8833369 0.05044728 0.7968217 0.01461154 0.7968217 0.01461154 0.7031784 0.01461154 0.5146116 0.2031783 0.7031784 0.01461154 0.6166632 0.05044728 0.5146116 0.2031783 0.6166632 0.05044728 0.5504473 0.1166631 0.5146116 0.2031783 0.5146116 0.2031783 0.5146116 0.2968217 0.7031784 0.4853885 0.5146116 0.2968217 0.5504473 0.3833369 0.7031784 0.4853885 0.5504473 0.3833369 0.6166632 0.4495527 0.7031784 0.4853885 0.7031784 0.4853885 0.9853885 0.2968217 0.7968217 0.01461154 0.625 0 0.625 0.25 0.375 0.25 0.625 0.25 0.625 0.5 0.375 0.5 0.625 0.5 0.625 0.75 0.375 0.75 0.625 0.75 0.625 1 0.375 1 0.375 0.5 0.375 0.75 0.125 0.75 0.875 0.5 0.875 0.75 0.625 0.75 1 1 0.96875 1 0.96875 0.5 0.96875 1 0.9375 1 0.9375 0.5 0.9375 1 0.90625 1 0.90625 0.5 0.90625 1 0.875 1 0.875 0.5 0.875 1 0.84375 1 0.84375 0.5 0.84375 1 0.8125 1 0.8125 0.5 0.8125 1 0.78125 1 0.78125 0.5 0.78125 1 0.75 1 0.75 0.5 0.75 1 0.71875 1 0.71875 0.5 0.71875 1 0.6875 1 0.6875 0.5 0.6875 1 0.65625 1 0.65625 0.5 0.65625 1 0.625 1 0.625 0.5 0.625 1 0.59375 1 0.59375 0.5 0.59375 1 0.5625 1 0.5625 0.5 0.5625 1 0.53125 1 0.53125 0.5 0.53125 1 0.5 1 0.5 0.5 0.5 1 0.46875 1 0.46875 0.5 0.46875 1 0.4375 1 0.4375 0.5 0.4375 1 0.40625 1 0.40625 0.5 0.40625 1 0.375 1 0.375 0.5 0.375 1 0.34375 1 0.34375 0.5 0.34375 1 0.3125 1 0.3125 0.5 0.3125 1 0.28125 1 0.28125 0.5 0.28125 1 0.25 1 0.25 0.5 0.25 1 0.21875 1 0.21875 0.5 0.21875 1 0.1875 1 0.1875 0.5 0.1875 1 0.15625 1 0.15625 0.5 0.15625 1 0.125 1 0.125 0.5 0.125 1 0.09375 1 0.09375 0.5 0.09375 1 0.0625 1 0.0625 0.5 0.341844 0.4717311 0.2968217 0.4853885 0.25 0.49 0.25 0.49 0.2031783 0.4853885 0.1581559 0.4717311 0.1581559 0.4717311 0.1166631 0.4495527 0.08029437 0.4197056 0.08029437 0.4197056 0.05044728 0.3833369 0.02826887 0.341844 0.02826887 0.341844 0.01461154 0.2968217 0.00999999 0.25 0.00999999 0.25 0.01461154 0.2031783 0.02826887 0.1581559 0.02826887 0.1581559 0.05044728 0.1166631 0.08029437 0.08029437 0.08029437 0.08029437 0.1166631 0.05044728 0.1581559 0.02826887 0.1581559 0.02826887 0.2031783 0.01461154 0.25 0.00999999 0.25 0.00999999 0.2968217 0.01461154 0.341844 0.02826887 0.341844 0.02826887 0.3833369 0.05044728 0.4197056 0.08029437 0.4197056 0.08029437 0.4495527 0.1166631 0.4717311 0.1581559 0.4717311 0.1581559 0.4853885 0.2031783 0.49 0.25 0.49 0.25 0.4853885 0.2968217 0.4717311 0.341844 0.4717311 0.341844 0.4495527 0.3833369 0.4197056 0.4197056 0.4197056 0.4197056 0.3833369 0.4495527 0.341844 0.4717311 0.341844 0.4717311 0.25 0.49 0.1581559 0.4717311 0.1581559 0.4717311 0.08029437 0.4197056 0.341844 0.4717311 0.08029437 0.4197056 0.02826887 0.341844 0.341844 0.4717311 0.02826887 0.341844 0.00999999 0.25 0.02826887 0.1581559 0.02826887 0.1581559 0.08029437 0.08029437 0.02826887 0.341844 0.08029437 0.08029437 0.1581559 0.02826887 0.02826887 0.341844 0.1581559 0.02826887 0.25 0.00999999 0.341844 0.02826887 0.341844 0.02826887 0.4197056 0.08029437 0.1581559 0.02826887 0.4197056 0.08029437 0.4717311 0.1581559 0.1581559 0.02826887 0.4717311 0.1581559 0.49 0.25 0.4717311 0.341844 0.4717311 0.341844 0.4197056 0.4197056 0.4717311 0.1581559 0.4197056 0.4197056 0.341844 0.4717311 0.4717311 0.1581559 0.341844 0.4717311 0.02826887 0.341844 0.4717311 0.1581559 0.0625 1 0.03125 1 0.03125 0.5 0.03125 1 0 1 0 0.5 0.7031784 0.4853885 0.75 0.49 0.8833369 0.4495527 0.75 0.49 0.7968217 0.4853885 0.8833369 0.4495527 0.7968217 0.4853885 0.841844 0.4717311 0.8833369 0.4495527 0.8833369 0.4495527 0.9197056 0.4197056 0.9853885 0.2968217 0.9197056 0.4197056 0.9495527 0.3833369 0.9853885 0.2968217 0.9495527 0.3833369 0.9717311 0.341844 0.9853885 0.2968217 0.9853885 0.2968217 0.99 0.25 0.9853885 0.2031783 0.9853885 0.2031783 0.9717311 0.1581559 0.9853885 0.2968217 0.9717311 0.1581559 0.9495527 0.1166631 0.9853885 0.2968217 0.9495527 0.1166631 0.9197056 0.08029437 0.8833369 0.05044728 0.8833369 0.05044728 0.841844 0.02826887 0.7968217 0.01461154 0.7968217 0.01461154 0.75 0.00999999 0.6166632 0.05044728 0.75 0.00999999 0.7031784 0.01461154 0.6166632 0.05044728 0.7031784 0.01461154 0.658156 0.02826887 0.6166632 0.05044728 0.6166632 0.05044728 0.5802944 0.08029437 0.5146116 0.2031783 0.5802944 0.08029437 0.5504473 0.1166631 0.5146116 0.2031783 0.5504473 0.1166631 0.5282689 0.1581559 0.5146116 0.2031783 0.5146116 0.2031783 0.51 0.25 0.5146116 0.2968217 0.5146116 0.2968217 0.5282689 0.341844 0.5146116 0.2031783 0.5282689 0.341844 0.5504473 0.3833369 0.5146116 0.2031783 0.5504473 0.3833369 0.5802944 0.4197056 0.6166632 0.4495527 0.6166632 0.4495527 0.658156 0.4717311 0.7031784 0.4853885 0.9495527 0.1166631 0.8833369 0.05044728 0.9853885 0.2968217 0.8833369 0.05044728 0.7968217 0.01461154 0.9853885 0.2968217 0.5504473 0.3833369 0.6166632 0.4495527 0.5146116 0.2031783 0.6166632 0.4495527 0.7031784 0.4853885 0.5146116 0.2031783 0.7031784 0.4853885 0.8833369 0.4495527 0.7968217 0.01461154 0.8833369 0.4495527 0.9853885 0.2968217 0.7968217 0.01461154 0.7968217 0.01461154 0.6166632 0.05044728 0.7031784 0.4853885</float_array>
          <technique_common>
            <accessor source="#Cylinder_009-mesh-map-0-array" count="780" stride="2">
              <param name="S" type="float"/>
              <param name="T" type="float"/>
            </accessor>
          </technique_common>
        </source>
        <vertices id="Cylinder_009-mesh-vertices">
          <input semantic="POSITION" source="#Cylinder_009-mesh-positions"/>
        </vertices>
        <triangles count="260">
          <input semantic="VERTEX" source="#Cylinder_009-mesh-vertices" offset="0"/>
          <input semantic="NORMAL" source="#Cylinder_009-mesh-normals" offset="1"/>
          <input semantic="TEXCOORD" source="#Cylinder_009-mesh-map-0" offset="2" set="0"/>
          <p>1 0 0 2 0 1 0 0 2 3 1 3 4 1 4 2 1 5 5 2 6 6 2 7 4 2 8 7 3 9 8 3 10 6 3 11 9 4 12 10 4 13 8 4 14 11 5 15 12 5 16 10 5 17 13 6 18 14 6 19 12 6 20 15 7 21 16 7 22 14 7 23 17 8 24 18 8 25 16 8 26 19 9 27 20 9 28 18 9 29 21 10 30 22 10 31 20 10 32 23 11 33 24 11 34 22 11 35 25 12 36 26 12 37 24 12 38 27 13 39 28 13 40 26 13 41 29 14 42 30 14 43 28 14 44 31 15 45 32 15 46 30 15 47 33 16 48 34 16 49 32 16 50 35 17 51 36 17 52 34 17 53 37 18 54 38 18 55 36 18 56 39 19 57 40 19 58 38 19 59 41 20 60 42 20 61 40 20 62 43 21 63 44 21 64 42 21 65 45 22 66 46 22 67 44 22 68 47 23 69 48 23 70 46 23 71 49 24 72 50 24 73 48 24 74 51 25 75 52 25 76 50 25 77 53 26 78 54 26 79 52 26 80 55 27 81 56 27 82 54 27 83 57 28 84 58 28 85 56 28 86 59 29 87 60 29 88 58 29 89 37 30 90 21 30 91 5 30 92 61 31 93 62 31 94 60 31 95 63 32 96 0 32 97 62 32 98 30 33 99 46 33 100 62 33 101 65 34 102 66 34 103 64 34 104 67 35 105 70 35 106 66 35 107 71 36 108 68 36 109 70 36 110 69 37 111 64 37 112 68 37 113 70 38 114 64 38 115 66 38 116 67 39 117 69 39 118 71 39 119 73 40 120 74 40 121 72 40 122 75 41 123 76 41 124 74 41 125 77 42 126 78 42 127 76 42 128 79 43 129 80 43 130 78 43 131 81 44 132 82 44 133 80 44 134 83 45 135 84 45 136 82 45 137 85 46 138 86 46 139 84 46 140 87 47 141 88 47 142 86 47 143 89 48 144 90 48 145 88 48 146 91 49 147 92 49 148 90 49 149 93 50 150 94 50 151 92 50 152 95 51 153 96 51 154 94 51 155 97 52 156 98 52 157 96 52 158 99 53 159 100 53 160 98 53 161 101 54 162 102 54 163 100 54 164 103 55 165 104 55 166 102 55 167 105 56 168 106 56 169 104 56 170 107 57 171 108 57 172 106 57 173 109 58 174 110 58 175 108 58 176 111 59 177 112 59 178 110 59 179 113 60 180 114 60 181 112 60 182 115 61 183 116 61 184 114 61 185 117 62 186 118 62 187 116 62 188 119 63 189 120 63 190 118 63 191 121 64 192 122 64 193 120 64 194 123 65 195 124 65 196 122 65 197 125 66 198 126 66 199 124 66 200 127 67 201 128 67 202 126 67 203 129 68 204 130 68 205 128 68 206 131 69 207 132 69 208 130 69 209 125 70 210 109 70 211 93 70 212 133 71 213 134 71 214 132 71 215 135 72 216 72 72 217 134 72 218 110 73 219 118 73 220 134 73 221 1 74 222 3 74 223 2 74 224 3 75 225 5 75 226 4 75 227 5 76 228 7 76 229 6 76 230 7 77 231 9 77 232 8 77 233 9 78 234 11 78 235 10 78 236 11 79 237 13 79 238 12 79 239 13 80 240 15 80 241 14 80 242 15 81 243 17 81 244 16 81 245 17 82 246 19 82 247 18 82 248 19 83 249 21 83 250 20 83 251 21 84 252 23 84 253 22 84 254 23 85 255 25 85 256 24 85 257 25 86 258 27 86 259 26 86 260 27 87 261 29 87 262 28 87 263 29 88 264 31 88 265 30 88 266 31 89 267 33 89 268 32 89 269 33 90 270 35 90 271 34 90 272 35 91 273 37 91 274 36 91 275 37 92 276 39 92 277 38 92 278 39 93 279 41 93 280 40 93 281 41 94 282 43 94 283 42 94 284 43 95 285 45 95 286 44 95 287 45 96 288 47 96 289 46 96 290 47 97 291 49 97 292 48 97 293 49 98 294 51 98 295 50 98 296 51 99 297 53 99 298 52 99 299 53 100 300 55 100 301 54 100 302 55 101 303 57 101 304 56 101 305 57 102 306 59 102 307 58 102 308 59 103 309 61 103 310 60 103 311 5 104 312 3 104 313 1 104 314 1 105 315 63 105 316 5 105 317 63 106 318 61 106 319 5 106 320 61 107 321 59 107 322 57 107 323 57 108 324 55 108 325 53 108 326 53 109 327 51 109 328 49 109 329 49 110 330 47 110 331 53 110 332 47 111 333 45 111 334 53 111 335 45 112 336 43 112 337 41 112 338 41 113 339 39 113 340 37 113 341 37 114 342 35 114 343 29 114 344 35 115 345 33 115 346 29 115 347 33 116 348 31 116 349 29 116 350 29 117 351 27 117 352 25 117 353 25 118 354 23 118 355 21 118 356 21 119 357 19 119 358 13 119 359 19 120 360 17 120 361 13 120 362 17 121 363 15 121 364 13 121 365 13 122 366 11 122 367 9 122 368 9 123 369 7 123 370 5 123 371 61 124 372 57 124 373 5 124 374 57 125 375 53 125 376 5 125 377 45 126 378 41 126 379 53 126 380 41 127 381 37 127 382 53 127 383 29 128 384 25 128 385 37 128 386 25 129 387 21 129 388 37 129 389 13 130 390 9 130 391 21 130 392 9 131 393 5 131 394 21 131 395 5 132 396 53 132 397 37 132 398 61 133 399 63 133 400 62 133 401 63 134 402 1 134 403 0 134 404 62 135 405 0 135 406 2 135 407 2 136 408 4 136 409 6 136 410 6 137 411 8 137 412 10 137 413 10 138 414 12 138 415 14 138 416 14 139 417 16 139 418 18 139 419 18 140 420 20 140 421 22 140 422 22 141 423 24 141 424 26 141 425 26 142 426 28 142 427 30 142 428 30 143 429 32 143 430 34 143 431 34 144 432 36 144 433 38 144 434 38 145 435 40 145 436 42 145 437 42 146 438 44 146 439 46 146 440 46 147 441 48 147 442 50 147 443 50 148 444 52 148 445 54 148 446 54 149 447 56 149 448 58 149 449 58 150 450 60 150 451 62 150 452 62 151 453 2 151 454 14 151 455 2 152 456 6 152 457 14 152 458 6 153 459 10 153 460 14 153 461 14 154 462 18 154 463 30 154 464 18 155 465 22 155 466 30 155 467 22 156 468 26 156 469 30 156 470 30 157 471 34 157 472 46 157 473 34 158 474 38 158 475 46 158 476 38 159 477 42 159 478 46 159 479 46 160 480 50 160 481 62 160 482 50 161 483 54 161 484 62 161 485 54 162 486 58 162 487 62 162 488 62 163 489 14 163 490 30 163 491 65 164 492 67 164 493 66 164 494 67 165 495 71 165 496 70 165 497 71 166 498 69 166 499 68 166 500 69 167 501 65 167 502 64 167 503 70 168 504 68 168 505 64 168 506 67 169 507 65 169 508 69 169 509 73 170 510 75 170 511 74 170 512 75 171 513 77 171 514 76 171 515 77 172 516 79 172 517 78 172 518 79 173 519 81 173 520 80 173 521 81 174 522 83 174 523 82 174 524 83 175 525 85 175 526 84 175 527 85 176 528 87 176 529 86 176 530 87 177 531 89 177 532 88 177 533 89 178 534 91 178 535 90 178 536 91 179 537 93 179 538 92 179 539 93 180 540 95 180 541 94 180 542 95 181 543 97 181 544 96 181 545 97 182 546 99 182 547 98 182 548 99 183 549 101 183 550 100 183 551 101 184 552 103 184 553 102 184 554 103 185 555 105 185 556 104 185 557 105 186 558 107 186 559 106 186 560 107 187 561 109 187 562 108 187 563 109 188 564 111 188 565 110 188 566 111 189 567 113 189 568 112 189 569 113 190 570 115 190 571 114 190 572 115 191 573 117 191 574 116 191 575 117 192 576 119 192 577 118 192 578 119 193 579 121 193 580 120 193 581 121 194 582 123 194 583 122 194 584 123 195 585 125 195 586 124 195 587 125 196 588 127 196 589 126 196 590 127 197 591 129 197 592 128 197 593 129 198 594 131 198 595 130 198 596 131 199 597 133 199 598 132 199 599 77 200 600 75 200 601 73 200 602 73 201 603 135 201 604 133 201 605 133 202 606 131 202 607 129 202 608 129 203 609 127 203 610 125 203 611 125 204 612 123 204 613 121 204 614 121 205 615 119 205 616 117 205 617 117 206 618 115 206 619 113 206 620 113 207 621 111 207 622 109 207 623 109 208 624 107 208 625 105 208 626 105 209 627 103 209 628 101 209 629 101 210 630 99 210 631 97 210 632 97 211 633 95 211 634 93 211 635 93 212 636 91 212 637 89 212 638 89 213 639 87 213 640 85 213 641 85 214 642 83 214 643 81 214 644 81 215 645 79 215 646 77 215 647 77 216 648 73 216 649 133 216 650 133 217 651 129 217 652 77 217 653 129 218 654 125 218 655 77 218 656 125 219 657 121 219 658 117 219 659 117 220 660 113 220 661 125 220 662 113 221 663 109 221 664 125 221 665 109 222 666 105 222 667 101 222 668 101 223 669 97 223 670 109 223 671 97 224 672 93 224 673 109 224 674 93 225 675 89 225 676 85 225 677 85 226 678 81 226 679 93 226 680 81 227 681 77 227 682 93 227 683 77 228 684 125 228 685 93 228 686 133 229 687 135 229 688 134 229 689 135 230 690 73 230 691 72 230 692 134 231 693 72 231 694 78 231 695 72 232 696 74 232 697 78 232 698 74 233 699 76 233 700 78 233 701 78 234 702 80 234 703 86 234 704 80 235 705 82 235 706 86 235 707 82 236 708 84 236 709 86 236 710 86 237 711 88 237 712 90 237 713 90 238 714 92 238 715 86 238 716 92 239 717 94 239 718 86 239 719 94 240 720 96 240 721 98 240 722 98 241 723 100 241 724 102 241 725 102 242 726 104 242 727 110 242 728 104 243 729 106 243 730 110 243 731 106 244 732 108 244 733 110 244 734 110 245 735 112 245 736 118 245 737 112 246 738 114 246 739 118 246 740 114 247 741 116 247 742 118 247 743 118 248 744 120 248 745 122 248 746 122 249 747 124 249 748 118 249 749 124 250 750 126 250 751 118 250 752 126 251 753 128 251 754 130 251 755 130 252 756 132 252 757 134 252 758 94 253 759 98 253 760 86 253 761 98 254 762 102 254 763 86 254 764 126 255 765 130 255 766 118 255 767 130 256 768 134 256 769 118 256 770 134 257 771 78 257 772 102 257 773 78 258 774 86 258 775 102 258 776 102 259 777 110 259 778 134 259 779</p>
        </triangles>
      </mesh>
    </geometry>
  </library_geometries>
  <library_visual_scenes>
    <visual_scene id="Scene" name="Scene">
      <node id="tmp_export_Cylinder_009" name="tmp_export_Cylinder.009" type="NODE">
        <matrix sid="transform">1 0 0 0 0 1 0 0 0 0 1 0 0 0 0 1</matrix>
        <instance_geometry url="#Cylinder_009-mesh" name="tmp_export_Cylinder.009"/>
      </node>
    </visual_scene>
  </library_visual_scenes>
  <scene>
    <instance_visual_scene url="#Scene"/>
  </scene>
</COLLADA>